# xmcd
#
# Track frame offsets: 
#        150
#        12662
#        26236
#        38700
#        53074
#        65851
#        81546
#        95864
#        110597
#        131965
#        145450
#        161884
#
# Disc length: 2376 seconds
#
# Revision: 3
# Processed by: cddbd v1.5.2PL0 Copyright (c) Steve Scherf et al.
# Submitted via: ExactAudioCopy v1.0b3
#
DISCID=c009460c
DTITLE=Nelson, Willie and Asleep At The Wheel - Willie And The Wheel
DYEAR=2009
DGENRE=Country
TTITLE0=Hesitation Blues
TTITLE1=Sweet Jennie Lee
TTITLE2=Fan It
TTITLE3=I Ain't Gonna Give Nobody None O' This Jellyroll  
TTITLE4=Oh! You Pretty Woman
TTITLE5=Bring It On Down To My House
TTITLE6=Right Or Wrong
TTITLE7=Corrine Corrina
TTITLE8=I'm Sittin' On Top Of The World
TTITLE9=Shame On You
TTITLE10=South
TTITLE11=Won't You Ride In My Little Red Wagon
EXTD=
EXTT0=
EXTT1=
EXTT2=
EXTT3=
EXTT4=
EXTT5=
EXTT6=
EXTT7=
EXTT8=
EXTT9=
EXTT10=
EXTT11=
PLAYORDER=
